<?xml version="1.0" encoding="utf-8"?>
<!-- Generator: Adobe Illustrator 15.0.0, SVG Export Plug-In  -->
<!DOCTYPE svg PUBLIC "-//W3C//DTD SVG 1.1//EN" "http://www.w3.org/Graphics/SVG/1.1/DTD/svg11.dtd" [
	<!ENTITY ns_flows "http://ns.adobe.com/Flows/1.0/">
]>
<svg version="1.1"
	 xmlns="http://www.w3.org/2000/svg" xmlns:xlink="http://www.w3.org/1999/xlink" xmlns:a="http://ns.adobe.com/AdobeSVGViewerExtensions/3.0/"
	 x="0px" y="0px" width="378px" height="315px" viewBox="-3.982 -15.219 378 315" enable-background="new -3.982 -15.219 378 315"
	 xml:space="preserve">
<defs>
</defs>
<path fill-rule="evenodd" clip-rule="evenodd" fill="#FFFFFF" d="M291.028,236.415c-24.789,27.705-58.022,45.344-98.356,47.872
	c-20.855,1.306-45.717-2.771-66.931-12.405c-20.197-9.171-36.014-21.566-47.892-35.176c-5.887,16.79-13.762,28.375-30.935,24.693
	c-7.804-1.675-17.909-6.388-24.292-10.421c-12.528-7.915-21.198-20.182-22.517-34.671c-0.873-9.574,3.885-18.609,8.567-29.104
	c8.357-18.731,17.289-38.5,25.292-56.421c11.124-24.913,21.576-53.39,36.049-73.167C97.426,20.155,142.465-2.98,193.261,0.31
	c29.242,1.894,58.105,13.927,77.787,29.043c19.162,14.717,33.704,33.971,42.529,53.758c9.242,20.719,19.192,41.505,28.14,62.076
	c6.455,14.84,13.577,30.81,20.482,46.685c2.298,5.284,6.011,11.078,6.826,15.562c3.303,18.14-10.712,36.522-21.766,43.235
	c-11.698,4.417-31.385,19.605-46.161,5.316C295.716,250.777,295.312,242.836,291.028,236.415z M206.861,248.836
	c13.816-2.884,25.132-8.181,35.739-14.775c20.854-12.962,41.303-35.355,48.038-69.567c6.369-32.362-0.309-58.526-14.231-80.334
	c-13.3-20.835-36.217-41.381-69.568-48.038c-31.184-6.224-58.245,0.253-80.333,14.231c-21.146,13.381-41.253,34.71-48.306,69.104
	c-6.631,32.336,0.683,59.365,13.767,80.602c12.191,19.789,36.368,41.992,69.836,48.502
	C177.989,251.707,193.814,251.559,206.861,248.836z"/>
</svg>
