<?xml version="1.0" encoding="utf-8"?>
<!-- Generator: Adobe Illustrator 15.0.0, SVG Export Plug-In  -->
<!DOCTYPE svg PUBLIC "-//W3C//DTD SVG 1.1//EN" "http://www.w3.org/Graphics/SVG/1.1/DTD/svg11.dtd" [
	<!ENTITY ns_flows "http://ns.adobe.com/Flows/1.0/">
]>
<svg version="1.1"
	 xmlns="http://www.w3.org/2000/svg" xmlns:xlink="http://www.w3.org/1999/xlink" xmlns:a="http://ns.adobe.com/AdobeSVGViewerExtensions/3.0/"
	 x="0px" y="0px" width="334px" height="315px" viewBox="0 0 334 315" enable-background="new 0 0 334 315" xml:space="preserve">
<defs>
</defs>
<path fill="#FFFFFF" stroke="#FFFFFF" stroke-width="3.7149" stroke-miterlimit="10" d="M313.134,1.857H20.642
	c-10.377,0-18.784,8.407-18.784,18.784v212.886c0,10.375,8.407,18.783,18.784,18.783h115.862c2.396,7.52,5.291,20.043,1.046,27.506
	c-6.357,11.181-50.467,21.106-50.886,24.418c-0.419,3.314,1.866,8.455,4.167,8.455h150.326c2.301,0,4.586-5.143,4.167-8.455
	c-0.42-3.312-44.528-13.237-50.887-24.418c-4.246-7.463-1.351-19.986,1.045-27.506h117.652c10.375,0,18.784-8.408,18.784-18.783
	V20.642C331.918,10.265,323.509,1.857,313.134,1.857z M304.191,220.108c0,2.276-3.004,4.117-6.709,4.117H34.503
	c-3.708,0-6.708-1.841-6.708-4.117V34.729c0-2.272,3-4.12,6.708-4.12h262.979c3.705,0,6.709,1.848,6.709,4.12V220.108
	L304.191,220.108z"/>
<path fill="#FFFFFF" stroke="#FFFFFF" stroke-width="1.9773" stroke-miterlimit="10" d="M142.849,52.388
	c0-0.985,0.98-1.782,2.191-1.782h133.392c1.211,0,2.192,0.796,2.192,1.782v108.47c0,0.985-0.981,1.781-2.192,1.781H145.04
	c-1.21,0-2.191-0.796-2.191-1.781V52.388z"/>
<path fill="#FFFFFF" stroke="#FFFFFF" stroke-width="1.5659" stroke-miterlimit="10" d="M53.283,53.041
	c0-1.344,0.451-2.435,1.006-2.435h61.279c0.555,0,1.006,1.09,1.006,2.435v148.09c0,1.345-0.451,2.433-1.006,2.433H54.29
	c-0.556,0-1.006-1.088-1.006-2.433L53.283,53.041L53.283,53.041z"/>
</svg>
