<?xml version="1.0" encoding="utf-8"?>
<!-- Generator: Adobe Illustrator 15.0.0, SVG Export Plug-In  -->
<!DOCTYPE svg PUBLIC "-//W3C//DTD SVG 1.1//EN" "http://www.w3.org/Graphics/SVG/1.1/DTD/svg11.dtd" [
	<!ENTITY ns_flows "http://ns.adobe.com/Flows/1.0/">
]>
<svg version="1.1"
	 xmlns="http://www.w3.org/2000/svg" xmlns:xlink="http://www.w3.org/1999/xlink" xmlns:a="http://ns.adobe.com/AdobeSVGViewerExtensions/3.0/"
	 x="0px" y="0px" width="318px" height="319px" viewBox="7.83 -2.57 318 319" enable-background="new 7.83 -2.57 318 319"
	 xml:space="preserve">
<defs>
</defs>
<g>
	<path fill="#FFFFFF" d="M308.99,73.94c-1.82,0-3.3-1.49-3.3-3.3V17.81c0-1.82,1.49-3.3,3.3-3.3h4.37c1.82,0,3.3-1.49,3.3-3.3v-7
		c0-1.82-1.49-3.3-3.3-3.3H4.21c-1.82,0-3.3,1.49-3.3,3.3v7c0,1.82,1.49,3.3,3.3,3.3h4.37c1.82,0,3.3,1.49,3.3,3.3v52.83
		c0,1.82-1.49,3.3-3.3,3.3H4.21c-1.82,0-3.3,1.49-3.3,3.3v6.17c0,1.82,1.49,3.3,3.3,3.3h309.16c1.82,0,3.3-1.49,3.3-3.3v-6.17
		c0-1.82-1.49-3.3-3.3-3.3H308.99z"/>
	<path fill="none" stroke="#FFFFFF" stroke-width="1.8147" stroke-miterlimit="10" d="M308.99,73.94c-1.82,0-3.3-1.49-3.3-3.3V17.81
		c0-1.82,1.49-3.3,3.3-3.3h4.37c1.82,0,3.3-1.49,3.3-3.3v-7c0-1.82-1.49-3.3-3.3-3.3H4.21c-1.82,0-3.3,1.49-3.3,3.3v7
		c0,1.82,1.49,3.3,3.3,3.3h4.37c1.82,0,3.3,1.49,3.3,3.3v52.83c0,1.82-1.49,3.3-3.3,3.3H4.21c-1.82,0-3.3,1.49-3.3,3.3v6.17
		c0,1.82,1.49,3.3,3.3,3.3h309.16c1.82,0,3.3-1.49,3.3-3.3v-6.17c0-1.82-1.49-3.3-3.3-3.3H308.99z"/>
</g>
<g>
	<path fill="#FFFFFF" d="M183.1,184.36c-0.91,0-1.65-0.74-1.65-1.65v-39.48c0-0.91,0.74-1.65,1.65-1.65h5.55
		c0.91,0,1.65-0.74,1.65-1.65v-5.03c0-0.91-0.74-1.65-1.65-1.65H13.53c-0.91,0-1.65,0.74-1.65,1.65v5.03c0,0.91,0.74,1.65,1.65,1.65
		h5.55c0.91,0,1.65,0.74,1.65,1.65v39.48c0,0.91-0.74,1.65-1.65,1.65h-5.55c-0.91,0-1.65,0.74-1.65,1.65v4.21
		c0,0.91,0.74,1.65,1.65,1.65h175.12c0.91,0,1.65-0.74,1.65-1.65v-4.21c0-0.91-0.74-1.65-1.65-1.65H183.1z"/>
	<path fill="none" stroke="#FFFFFF" stroke-width="1.1274" stroke-miterlimit="10" d="M183.1,184.36c-0.91,0-1.65-0.74-1.65-1.65
		v-39.48c0-0.91,0.74-1.65,1.65-1.65h5.55c0.91,0,1.65-0.74,1.65-1.65v-5.03c0-0.91-0.74-1.65-1.65-1.65H13.53
		c-0.91,0-1.65,0.74-1.65,1.65v5.03c0,0.91,0.74,1.65,1.65,1.65h5.55c0.91,0,1.65,0.74,1.65,1.65v39.48c0,0.91-0.74,1.65-1.65,1.65
		h-5.55c-0.91,0-1.65,0.74-1.65,1.65v4.21c0,0.91,0.74,1.65,1.65,1.65h175.12c0.91,0,1.65-0.74,1.65-1.65v-4.21
		c0-0.91-0.74-1.65-1.65-1.65H183.1z"/>
</g>
<g>
	<path fill="#FFFFFF" d="M308.99,305.51c-1.82,0-3.3-1.49-3.3-3.3v-52.83c0-1.82,1.49-3.3,3.3-3.3h4.37c1.82,0,3.3-1.49,3.3-3.3
		v-6.99c0-1.82-1.49-3.3-3.3-3.3H4.21c-1.82,0-3.3,1.49-3.3,3.3v6.99c0,1.82,1.49,3.3,3.3,3.3h4.37c1.82,0,3.3,1.49,3.3,3.3v52.83
		c0,1.82-1.49,3.3-3.3,3.3H4.21c-1.82,0-3.3,1.49-3.3,3.3v6.17c0,1.82,1.49,3.3,3.3,3.3h309.16c1.82,0,3.3-1.49,3.3-3.3v-6.17
		c0-1.82-1.49-3.3-3.3-3.3H308.99z"/>
	<path fill="none" stroke="#FFFFFF" stroke-width="1.8147" stroke-miterlimit="10" d="M308.99,305.51c-1.82,0-3.3-1.49-3.3-3.3
		v-52.83c0-1.82,1.49-3.3,3.3-3.3h4.37c1.82,0,3.3-1.49,3.3-3.3v-6.99c0-1.82-1.49-3.3-3.3-3.3H4.21c-1.82,0-3.3,1.49-3.3,3.3v6.99
		c0,1.82,1.49,3.3,3.3,3.3h4.37c1.82,0,3.3,1.49,3.3,3.3v52.83c0,1.82-1.49,3.3-3.3,3.3H4.21c-1.82,0-3.3,1.49-3.3,3.3v6.17
		c0,1.82,1.49,3.3,3.3,3.3h309.16c1.82,0,3.3-1.49,3.3-3.3v-6.17c0-1.82-1.49-3.3-3.3-3.3H308.99z"/>
</g>
</svg>
