<?xml version="1.0" encoding="utf-8"?>
<!-- Generator: Adobe Illustrator 15.0.0, SVG Export Plug-In  -->
<!DOCTYPE svg PUBLIC "-//W3C//DTD SVG 1.1//EN" "http://www.w3.org/Graphics/SVG/1.1/DTD/svg11.dtd" [
	<!ENTITY ns_flows "http://ns.adobe.com/Flows/1.0/">
]>
<svg version="1.1"
	 xmlns="http://www.w3.org/2000/svg" xmlns:xlink="http://www.w3.org/1999/xlink" xmlns:a="http://ns.adobe.com/AdobeSVGViewerExtensions/3.0/"
	 x="0px" y="0px" width="346px" height="292px" viewBox="0 0 346 292" enable-background="new 0 0 346 292" xml:space="preserve">
<defs>
</defs>
<path fill="#FFFFFF" d="M204.893,150.747c-1.569,3.863-3.182,11.51-3.627,12.627c-0.938,2.342-3.145,7.027-7.025,7.027h-42.281
	c-3.88,0-6.09-4.686-7.027-7.027c-0.446-1.117-2.059-8.764-3.628-12.627H0v127.451c0,7.576,6.143,13.721,13.722,13.721h318.755
	c7.58,0,13.723-6.145,13.723-13.721V150.747H204.893z"/>
<path fill="#FFFFFF" d="M346.199,126.657V58.808c0-7.579-6.143-13.722-13.723-13.722h-79.812c-3.839-9.462-7.424-18.314-8.522-21.06
	C241.475,17.358,235.184,0,224.135,0H122.064c-11.05,0-17.339,17.358-20.007,24.027c-1.099,2.746-4.684,11.597-8.521,21.06H13.722
	C6.143,45.086,0,51.229,0,58.808v67.849H346.199z M117.918,35.831c2.028-5.068,6.808-19.226,15.207-19.226h79.95
	c8.398,0,13.177,14.157,15.205,19.226c0.562,1.405,1.982,4.917,3.741,9.254H114.178C115.936,40.748,117.356,37.238,117.918,35.831z"
	/>
</svg>
