<?xml version="1.0" encoding="utf-8"?>
<!-- Generator: Adobe Illustrator 15.0.0, SVG Export Plug-In . SVG Version: 6.00 Build 0)  -->
<!DOCTYPE svg PUBLIC "-//W3C//DTD SVG 1.1//EN" "http://www.w3.org/Graphics/SVG/1.1/DTD/svg11.dtd">
<svg version="1.1" xmlns="http://www.w3.org/2000/svg" xmlns:xlink="http://www.w3.org/1999/xlink" x="0px" y="0px" width="500px"
	 height="500px" viewBox="0 0 500 500" enable-background="new 0 0 500 500" xml:space="preserve">
<g id="Layer_3" display="none">
	<rect display="inline" fill="#CC3333" width="500" height="500"/>
	<rect display="inline" fill="#CC3333" width="500" height="500"/>
</g>
<g id="Layer_1" display="none">
	<rect x="43.019" y="119.914" display="inline" fill="#FCF2F5" width="413.963" height="54"/>
	<rect x="89.019" y="265.648" display="inline" fill="#FCF2F5" width="321.963" height="18.352"/>
	<rect x="89.019" y="200" display="inline" fill="#FCF2F5" width="321.963" height="33.176"/>
	
		<rect x="107.883" y="138.329" transform="matrix(0.8821 0.4712 -0.4712 0.8821 129.4175 -35.1347)" display="inline" fill="#FCF2F5" width="54" height="205.172"/>
	
		<rect x="343.541" y="138.329" transform="matrix(-0.8526 0.5225 -0.5225 -0.8526 812.3575 252.6948)" display="inline" fill="#FCF2F5" width="54" height="205.172"/>
</g>
<g id="Layer_4" display="none">
	<rect x="130.333" y="150" display="inline" fill="#FCF5F7" width="32.332" height="216.331"/>
	<rect x="88" y="204.17" display="inline" fill="#FCF5F7" width="324" height="40"/>
	<rect x="344.049" y="150" display="inline" fill="#FCF5F7" width="29.902" height="216.331"/>
	
		<rect x="186.789" y="156.701" transform="matrix(-0.7071 0.7071 -0.7071 -0.7071 516.5123 271.724)" display="inline" fill="#FCF5F7" width="30.385" height="172.264"/>
	<rect x="101.667" y="145" display="inline" fill="#FCF5F7" width="296.667" height="20"/>
	
		<rect x="287.111" y="156.701" transform="matrix(0.7071 0.7071 -0.7071 0.7071 260.2519 -142.6367)" display="inline" fill="#FCF5F7" width="30.385" height="172.264"/>
	<rect x="130.333" y="308.5" display="inline" fill="#FCF5F7" width="243.618" height="15.98"/>
</g>
<g id="Layer_4_rounded" display="none">
	<g display="inline">
		<path fill="#FCF5F7" d="M162.666,361.331c0,2.75-2.25,5-5,5h-22.332c-2.75,0-5-2.25-5-5V155c0-2.75,2.25-5,5-5h22.332
			c2.75,0,5,2.25,5,5V361.331z"/>
	</g>
	<g display="inline">
		<path fill="#FCF5F7" d="M412,239.17c0,2.75-2.25,5-5,5H93c-2.75,0-5-2.25-5-5v-30c0-2.75,2.25-5,5-5h314c2.75,0,5,2.25,5,5V239.17
			z"/>
	</g>
	<g display="inline">
		<path fill="#FCF5F7" d="M373.951,361.331c0,2.75-2.25,5-5,5h-19.902c-2.75,0-5-2.25-5-5V155c0-2.75,2.25-5,5-5h19.902
			c2.75,0,5,2.25,5,5V361.331z"/>
	</g>
	<g display="inline">
		<path fill="#FCF5F7" d="M398.334,160c0,2.75-2.25,5-5,5H106.667c-2.75,0-5-2.25-5-5v-10c0-2.75,2.25-5,5-5h286.667
			c2.75,0,5,2.25,5,5V160z"/>
	</g>
	<g display="inline">
		<polygon fill="#FCF5F7" points="373.951,192.672 352.466,171.187 252.143,271.509 151.819,171.187 130.333,192.672 
			230.657,292.995 230.656,292.995 252.143,314.48 273.629,292.995 273.629,292.994 		"/>
	</g>
	<rect x="135" y="308.5" display="inline" fill="#FCF5F7" width="233.333" height="15.98"/>
</g>
<g id="Layer_4_rounded_copy" display="none">
	<g display="inline">
		<path fill="#FCF5F7" d="M162.666,361.331c0,2.75-2.25,5-5,5h-22.332c-2.75,0-5-2.25-5-5V155c0-2.75,2.25-5,5-5h22.332
			c2.75,0,5,2.25,5,5V361.331z"/>
	</g>
	<g display="inline">
		<path fill="#FCF5F7" d="M412,239.17c0,2.75-2.25,5-5,5H93c-2.75,0-5-2.25-5-5v-30c0-2.75,2.25-5,5-5h314c2.75,0,5,2.25,5,5V239.17
			z"/>
	</g>
	<g display="inline">
		<path fill="#FCF5F7" d="M373.951,361.331c0,2.75-2.25,5-5,5h-19.902c-2.75,0-5-2.25-5-5V155c0-2.75,2.25-5,5-5h19.902
			c2.75,0,5,2.25,5,5V361.331z"/>
	</g>
	<g display="inline">
		<path fill="#FCF5F7" d="M398.334,168.278c0,3.33-2.725,6.055-6.056,6.055H107.722c-3.33,0-6.055-2.725-6.055-6.055v-17.223
			c0-3.33,2.725-6.055,6.055-6.055h284.557c3.331,0,6.056,2.725,6.056,6.055V168.278z"/>
	</g>
	<rect x="135" y="308.5" display="inline" fill="#FCF5F7" width="233.333" height="15.98"/>
</g>
<g id="Layer_4_rounded_copy_2" display="none">
	<g display="inline">
		<path fill="#FCF5F7" d="M168,401.445c0,3.237-2.648,5.886-5.886,5.886h-25.895c-3.237,0-5.886-2.648-5.886-5.886v-245.56
			c0-3.237,2.649-5.886,5.886-5.886h25.895c3.237,0,5.886,2.648,5.886,5.886V401.445z"/>
	</g>
	<g display="inline">
		<path fill="#FCF5F7" d="M412,271.114c0,3.19-2.61,5.801-5.801,5.801H93.8c-3.19,0-5.8-2.61-5.8-5.801v-42.229
			c0-3.19,2.61-5.8,5.8-5.8h312.399c3.19,0,5.801,2.61,5.801,5.8V271.114z"/>
	</g>
	<g display="inline">
		<path fill="#FCF5F7" d="M373.951,401.107c0,3.423-2.801,6.224-6.224,6.224h-26.504c-3.423,0-6.224-2.801-6.224-6.224V156.224
			c0-3.423,2.801-6.224,6.224-6.224h26.504c3.423,0,6.224,2.801,6.224,6.224V401.107z"/>
	</g>
	<g display="inline">
		<path fill="#FCF5F7" d="M394,176.209c0,3.735-3.056,6.791-6.791,6.791H112.791c-3.735,0-6.791-3.056-6.791-6.791v-24.419
			c0-3.735,3.056-6.791,6.791-6.791h274.418c3.735,0,6.791,3.056,6.791,6.791V176.209z"/>
	</g>
	<rect x="135" y="334.009" display="inline" fill="#FCF5F7" width="233.333" height="30.002"/>
	
		<image display="inline" overflow="visible" width="334" height="315" xlink:href="7B83877C.jpg"  transform="matrix(0.9016 0 0 0.9016 500 122)">
	</image>
</g>
<g id="Layer_4_rounded_copy_3" display="none">
	<g display="inline">
		<path fill="#FCF5F7" d="M179.167,363.429c0,4.17-3.412,7.581-7.582,7.581h-44.837c-4.17,0-7.582-3.411-7.582-7.581V110.582
			c0-4.17,3.412-7.582,7.582-7.582h44.837c4.17,0,7.582,3.412,7.582,7.582V363.429z"/>
	</g>
	<g display="inline">
		<path fill="#FCF5F7" d="M425,257.386c0,3.638-2.977,6.614-6.614,6.614H107.614c-3.638,0-6.614-2.977-6.614-6.614v-56.771
			c0-3.638,2.977-6.614,6.614-6.614h310.771c3.638,0,6.614,2.977,6.614,6.614V257.386z"/>
	</g>
	<g display="inline">
		<path fill="#FCF5F7" d="M335.333,401.023c0,3.47-2.838,6.308-6.308,6.308h-27.385c-3.47,0-6.308-2.838-6.308-6.308V156.307
			c0-3.469,2.838-6.307,6.308-6.307h27.385c3.47,0,6.308,2.838,6.308,6.307V401.023z"/>
	</g>
	<g display="inline">
		<path fill="#FCF5F7" d="M359,172.966c0,3.318-2.715,6.034-6.033,6.034H77.034c-3.318,0-6.034-2.715-6.034-6.034v-17.933
			c0-3.318,2.715-6.034,6.034-6.034h275.933c3.318,0,6.033,2.715,6.033,6.034V172.966z"/>
	</g>
	<rect x="82" y="324.01" display="inline" fill="#FCF5F7" width="233.333" height="50"/>
</g>
<g id="Layer_4_rounded_copy_4" display="none">
	<g display="inline">
		<path fill="#FCF5F7" d="M169.167,366.01c0,2.75-2.25,5-5,5h-30c-2.75,0-5-2.25-5-5V108c0-2.75,2.25-5,5-5h30c2.75,0,5,2.25,5,5
			V366.01z"/>
	</g>
	<g display="inline">
		<path fill="#FCF5F7" d="M425,239c0,2.75-2.25,5-5,5H106c-2.75,0-5-2.25-5-5v-20c0-2.75,2.25-5,5-5h314c2.75,0,5,2.25,5,5V239z"/>
	</g>
	<g display="inline">
		<path fill="#FCF5F7" d="M345.333,402.331c0,2.75-2.25,5-5,5h-50c-2.75,0-5-2.25-5-5V155c0-2.75,2.25-5,5-5h50c2.75,0,5,2.25,5,5
			V402.331z"/>
	</g>
	<g display="inline">
		<path fill="#FCF5F7" d="M359,194c0,2.75-2.25,5-5,5H76c-2.75,0-5-2.25-5-5v-60c0-2.75,2.25-5,5-5h278c2.75,0,5,2.25,5,5V194z"/>
	</g>
	<g display="inline">
		<path fill="#FCF5F7" d="M315.333,369.01c0,2.75-2.25,5-5,5H87c-2.75,0-5-2.25-5-5v-40c0-2.75,2.25-5,5-5h223.333
			c2.75,0,5,2.25,5,5V369.01z"/>
	</g>
	<g display="inline">
		<path fill="#FCF5F7" d="M250.5,312.333c-2.75,0-5-2.25-5-5v-111c0-2.75,2.25-5,5-5h10c2.75,0,5,2.25,5,5v111c0,2.75-2.25,5-5,5
			H250.5z"/>
	</g>
</g>
<g id="Layer_4_rounded_copy_5">
	<g>
		<path fill="#515151" d="M425,214h-79.667v-15H359v-70H169.167v-26h-40v26H71v70h58.167v15H101v30h28.167v80.01H82v50h203.333
			v33.321h60V244H425V214z M285.333,214H265.5v-15h19.833V214z M169.167,199H245.5v15h-76.333V199z M285.333,324.01H169.167V244
			H245.5v68.333h20V244h19.833V324.01z"/>
	</g>
</g>
</svg>
