<svg xmlns="http://www.w3.org/2000/svg" viewBox="0 0 120 120">
  <path fill="#C5C5C5" d="M43.6 52.9c-1.5-11.2-1.4-22 2.8-32.6 1.3-3.2 3.2-6.6 6.7-7.7 2.3-.7 4.7-.2 6.6 1.2.4.4.9.7 1.4 1 2.2 1 4.4-1.7 6.8-1.8 3.4-.2 4.9 4.3 8.1 5.5 2.1.8 4.9.4 7.2.7 2.1.3 3.3 2.6 4.1 4.4 1.1 2.5 4.6 1.9 6.8 3.5 2.8 2.1 2.5 6.2 1.6 9.5-3.6 12.3-14.7 23-25.8 30.5 0 0 7.4 8.1 10.3 12.7.8 1 1.3 2.2 1.6 3.5.3 2-.7 4-2.4 5.1-1.7 1-3.9.9-5.5-.2-1.7-1.1-2.7-2.9-3.8-4.5s-1.9-1.5-3.9-1.5l-6 22.1c-.2.8-.5 1.5-1 2.1-.6.5-1.3.8-2 .9-3.2.8-7.1 1.4-9.3-1.1-1.3-1.7-1.7-3.9-1.1-5.9.5-2 2.9-5.3 2.6-5.3-2.5 0-4.8-1.3-6-3.5 0 0-1 5.2-2 7-.9 1.9-2.7 3.2-4.7 3.5-3.3.2-5.7-3-7.4-5.9-1-1.2-1.1-3-.2-4.2l10.4-20.3c-1.4-1.3-3.6-1.3-5.6-1s-3.9.9-5.8.5c-2-.4-3.6-1.9-4.2-3.8-.6-2 .1-4 1.7-5.3 1.1-.7 2.2-1.2 3.5-1.4 4.5-1 12-.3 16.6-1.3-.1-.3-1.9-5.3-2.1-6.4z"/>
</svg>