<svg xmlns="http://www.w3.org/2000/svg" id="svg3855" viewBox="0 0 120 120"><g id="g3898" fill="#c5c5c5"><g id="g3869"><path id="path3865" d="M104.6 34.6c-.6 0-1-.5-1-1V18c0-.6.4-1 1-1h1.3s1-.5 1-1v-2c0-.7-1-1-1-1H14c-.4 0-1 .3-1 1v2c0 .5.6 1 1 1h1.4c.6 0 1 .4 1 1v15.6c0 .5-.4 1-1 1H14c-.4 0-1 .4-1 1v1.8c0 .5.6 1 1 1h92c.4 0 1-.5 1-1v-1.8c0-.6-.6-1-1-1z"/><path id="path3867" stroke="#fff" stroke-width=".5" stroke-miterlimit="10" d="M104.6 34.6c-.6 0-1-.5-1-1V18c0-.6.4-1 1-1h1.3s1-.5 1-1v-2c0-.7-1-1-1-1H14c-.4 0-1 .3-1 1v2c0 .5.6 1 1 1h1.4c.6 0 1 .4 1 1v15.6c0 .5-.4 1-1 1H14c-.4 0-1 .4-1 1v1.8c0 .5.6 1 1 1h92c.4 0 1-.5 1-1v-1.8c0-.6-.6-1-1-1z"/></g><g id="g3875"><path id="path3871" d="M67.2 67.4c-.3 0-.5-.3-.5-.5V55s.2-.3.5-.3H69s.4-.3.4-.5v-1.5c0-.3-.3-.5-.5-.5H17c-.4 0-.6.2-.6.5v1.5c0 .2.2.5.5.5h1s.2.2.2.4v12s-.3 1-.6 1h-1c-.5 0-.7 0-.7.5v1c0 .5.2.7.5.7h52v-1.5s-.2-.3-.4-.3z"/><path id="path3873" stroke="#fff" stroke-width=".3" stroke-miterlimit="10" d="M67.2 67.4c-.3 0-.5-.3-.5-.5V55s.2-.3.5-.3H69s.4-.3.4-.5v-1.5c0-.3-.3-.5-.5-.5H17c-.4 0-.6.2-.6.5v1.5c0 .2.2.5.5.5h1s.2.2.2.4v12s-.3 1-.6 1h-1c-.5 0-.7 0-.7.5v1c0 .5.2.7.5.7h52v-1.5s-.2-.3-.4-.3z"/></g><g id="g3881"><path id="path3877" d="M104.6 103.3c-.6 0-1-.4-1-1V86.7c0-.6.4-1 1-1h1.3s1-.5 1-1v-2c0-.6-1-1-1-1H14c-.4 0-1 .4-1 1v2c0 .5.6 1 1 1h1.4c.6 0 1 .4 1 1v15.6c0 .6-.4 1-1 1H14c-.4 0-1 .5-1 1v1.8c0 1 .6 1 1 1h92c.4 0 1 0 1-1v-1c0-.4-.6-1-1-1z"/><path id="path3879" stroke="#fff" stroke-width=".5" stroke-miterlimit="10" d="M104.6 103.3c-.6 0-1-.4-1-1V86.7c0-.6.4-1 1-1h1.3s1-.5 1-1v-2c0-.6-1-1-1-1H14c-.4 0-1 .4-1 1v2c0 .5.6 1 1 1h1.4c.6 0 1 .4 1 1v15.6c0 .6-.4 1-1 1H14c-.4 0-1 .5-1 1v1.8c0 1 .6 1 1 1h92c.4 0 1 0 1-1v-1c0-.4-.6-1-1-1z"/></g></g><style id="style4705">.c{fill:#c5c5c5;}</style></svg>
