<svg xmlns="http://www.w3.org/2000/svg" viewBox="0 0 120 120">
<style>.c{fill:#c5c5c5;}</style>
<path class="c" d="M60.1,13A47,47,0,0,0,30.21,96.28c-5.95,1.64-13.7-.72-17.31-.59A50.27,50.27,0,0,1,16.75,104c4.76-.64,10.62.42,14.71-.77A9.31,9.31,0,0,0,36,100.34,47,47,0,1,0,60.1,13ZM49.37,27.18a13.15,13.15,0,1,1-.78,10,13,13,0,0,1,.78-10ZM21.72,50.78A13.14,13.14,0,1,1,34.86,63.91,13.05,13.05,0,0,1,21.72,50.78ZM56,85.21a13.11,13.11,0,0,1-12.49,9.08h0A13.14,13.14,0,1,1,56,85.21ZM54.76,60a5.34,5.34,0,1,1,5.34,5.33A5.34,5.34,0,0,1,54.76,60Zm31,30a13.18,13.18,0,0,1-10.64,5.42A13.14,13.14,0,0,1,64.46,74.58,13.19,13.19,0,0,1,75.1,69.16,13.14,13.14,0,0,1,85.72,90Zm7.94-26.76a13.06,13.06,0,0,1-7.71,2.51A13.14,13.14,0,0,1,73,50.58a13.14,13.14,0,1,1,20.71,12.7Z"/>
<path class="c" d="M55.8,43.5a11.62,11.62,0,0,0,16.9-10.41,29.73,29.73,0,0,0-23.21-.84A11.65,11.65,0,0,0,55.8,43.5ZM43.08,59a11.62,11.62,0,0,0-4.67-19.29,29.6,29.6,0,0,0-8,20.29c0,.51,0,1,0,1.52A11.63,11.63,0,0,0,43.08,59ZM83.21,41.33a11.62,11.62,0,0,0-6.67,18.13A11.4,11.4,0,0,0,79.11,62a11.61,11.61,0,0,0,10.47,1.63A31.86,31.86,0,0,0,89.81,60,29.56,29.56,0,0,0,83.2,41.32ZM53.88,75.88a11.63,11.63,0,0,0-19.8-1.51A29.79,29.79,0,0,0,52.37,88.69a11.67,11.67,0,0,0,2.2-3.95,11.54,11.54,0,0,0-.7-8.87Zm28-3a11.62,11.62,0,0,0-16.23,2.58A11.74,11.74,0,0,0,64,78.71a11.6,11.6,0,0,0,1.69,10.47A29.75,29.75,0,0,0,85,76.21a11.85,11.85,0,0,0-3.08-3.31Z"/>
</svg>