<svg xmlns="http://www.w3.org/2000/svg" viewBox="0 0 120 120">
<path fill="#c5c5c5" d="M60 13.2a48 48 0 0 0-15.17 93.55c2.4.44 3.28-1 3.28-2.3s0-4.17-.03-8.17c-13.35 2.9-16.17-6.43-16.17-6.43-2.2-5.55-5.34-7-5.34-7-4.36-3 .33-2.92.33-2.92 4.8.34 7.33 4.95 7.33 4.95 4.28 7.34 11.23 5.22 14 4a10.26 10.26 0 0 1 3-6.42c-10.7-1.25-21.9-5.37-21.9-23.76a18.55 18.55 0 0 1 4.95-12.88c-.5-1.2-2.15-6.1.46-12.7 0 0 4-1.3 13.2 4.92a45.5 45.5 0 0 1 24 0c9.16-6.2 13.2-4.92 13.2-4.92 2.6 6.6 1 11.5.47 12.7a18.52 18.52 0 0 1 4.94 12.88c0 18.44-11.22 22.5-21.92 23.7 1.76 1.46 3.33 4.4 3.33 8.87 0 6.42-.06 11.6-.06 13.17 0 1.28.86 2.78 3.3 2.3A48 48 0 0 0 60 13.2z"/>
</svg>